              <svg className="" version="1.0" xmlns="http://www.w3.org/2000/svg" viewBox="0 0 1024.000000 1024.000000">
                <g transform="translate(0,1024) scale(0.1,-0.1)">
                  <path
                    d="M1104 9336 c-10 -26 4 -48 28 -44 17 2 23 10 23 28 0 18 -6 26 -23
28 -13 2 -25 -3 -28 -12z"
                  />
                  <path
                    d="M8969 9174 c-16 -20 -1 -48 29 -52 25 -4 39 32 22 53 -16 19 -34 19
-51 -1z"
                  />
                  <path
                    d="M2701 9102 c-8 -15 -7 -23 4 -32 21 -18 47 -4 43 22 -4 29 -34 35
-47 10z"
                  />
                  <path
                    d="M4692 9078 c-17 -17 -15 -47 4 -55 23 -9 51 23 38 44 -14 22 -27 26
-42 11z"
                  />
                  <path
                    d="M6873 8923 c-18 -6 -16 -42 2 -49 16 -6 45 12 45 27 0 12 -33 27 -47
22z"
                  />
                  <path
                    d="M1533 7993 c-19 -7 -16 -41 5 -52 25 -13 44 1 40 30 -3 24 -21 32
-45 22z"
                  />
                  <path
                    d="M8544 7986 c-10 -26 4 -48 28 -44 17 2 23 10 23 28 0 18 -6 26 -23
28 -13 2 -25 -3 -28 -12z"
                  />
                  <path
                    d="M7414 7908 c-9 -15 27 -41 39 -29 13 13 1 41 -17 41 -8 0 -18 -5 -22
-12z"
                  />
                  <path
                    d="M2968 7805 c-225 -38 -441 -151 -621 -324 -179 -172 -285 -358 -340
-596 -21 -89 -21 -110 -25 -1620 -2 -1015 0 -1569 7 -1645 27 -288 143 -534
350 -740 161 -159 333 -261 536 -316 95 -26 114 -28 370 -31 173 -3 280 -1
297 6 58 22 73 96 24 124 -14 8 -108 14 -301 18 -247 5 -290 8 -360 27 -373
103 -692 455 -750 829 -14 86 -15 297 -13 1678 l3 1580 22 77 c49 171 117 300
225 427 152 179 338 290 582 349 66 16 180 17 1521 14 1590 -3 1515 0 1674
-63 342 -137 573 -437 635 -829 17 -104 34 -130 86 -130 31 0 80 48 80 79 0
45 -35 215 -61 296 -117 367 -423 662 -801 772 l-93 28 -1485 1 c-1182 2
-1501 0 -1562 -11z"
                  />
                  <path
                    d="M3484 6930 c-194 -51 -396 -189 -503 -343 -47 -69 -97 -180 -123
-272 -21 -75 -22 -100 -22 -430 -1 -292 2 -362 16 -421 21 -90 61 -190 106
-268 44 -75 177 -214 253 -265 l58 -39 -52 -17 c-217 -70 -388 -268 -459 -533
-25 -94 -36 -417 -20 -554 12 -97 60 -235 113 -325 53 -90 198 -229 299 -286
131 -73 288 -117 421 -117 l57 0 7 -132 c8 -148 21 -202 60 -259 49 -69 158
-99 238 -65 18 7 127 110 243 228 l211 215 228 7 c267 8 285 13 285 83 0 61
-13 64 -316 59 l-269 -4 -227 -232 c-125 -128 -233 -230 -240 -228 -7 3 -23
19 -34 36 -24 34 -30 79 -40 280 -6 121 -9 135 -28 147 -13 8 -69 15 -156 18
-154 6 -228 25 -351 89 -149 76 -264 211 -323 377 l-31 86 0 240 c0 224 2 245
23 315 13 41 35 97 49 125 72 142 227 276 374 324 80 26 171 28 799 21 702 -8
708 -8 818 -62 102 -49 253 -233 301 -366 28 -77 34 -85 62 -93 13 -4 142 -7
287 -8 l262 -1 0 -147 c0 -173 8 -210 58 -265 74 -82 62 -80 606 -79 468 1
1051 6 1779 16 388 6 402 8 460 63 16 15 39 45 50 67 22 40 22 43 28 935 6
853 6 897 -12 937 -20 49 -57 86 -114 117 -40 21 -41 21 -823 21 l-783 0 111
107 c135 131 178 208 189 335 l6 77 285 -3 c256 -2 286 -3 298 -19 7 -9 27
-37 45 -61 39 -54 102 -88 189 -103 135 -24 266 45 318 164 35 79 34 195 -2
263 -14 28 -41 64 -60 82 -101 98 -296 109 -400 23 -39 -33 -98 -138 -98 -177
l0 -23 -362 0 c-417 0 -1063 17 -1094 30 -12 5 -24 21 -27 37 -8 39 -60 108
-104 137 -53 35 -155 60 -220 53 -139 -14 -246 -132 -260 -286 -16 -177 107
-303 298 -305 55 0 77 5 131 32 68 33 99 65 137 140 21 42 24 43 59 38 20 -3
187 -8 370 -12 329 -7 332 -7 333 -28 9 -122 -32 -190 -229 -384 l-115 -113
-241 -5 c-560 -11 -602 -13 -659 -43 -59 -31 -111 -93 -129 -154 -8 -31 -12
-210 -12 -669 -1 -558 -3 -629 -17 -643 -14 -14 -42 -15 -236 -9 l-220 7 -33
66 c-77 157 -211 310 -320 364 l-50 25 57 32 c205 116 345 292 405 511 22 81
23 98 23 444 -1 357 -1 361 -27 457 -85 312 -316 537 -636 619 -70 18 -116 19
-666 18 -542 0 -597 -2 -662 -19z m1282 -140 c245 -62 435 -230 518 -458 41
-115 51 -213 51 -507 -1 -250 -2 -276 -23 -350 -70 -244 -241 -420 -492 -505
-64 -22 -71 -22 -655 -21 -657 1 -640 -1 -788 70 -178 85 -318 256 -374 456
-21 78 -31 638 -13 743 39 228 209 439 428 533 26 11 81 29 122 39 68 17 125
19 611 19 504 1 541 0 615 -19z m1534 -108 c98 -53 95 -226 -6 -268 -77 -32
-178 -9 -214 48 -40 63 -7 187 58 223 38 20 120 19 162 -3z m2056 -3 c32 -15
48 -32 65 -65 52 -109 -19 -214 -144 -214 -70 0 -116 25 -138 74 -24 52 -23
90 1 143 36 79 127 106 216 62z m272 -904 c2 -2 -14 -13 -35 -26 -21 -12 -277
-261 -570 -553 -350 -349 -545 -537 -570 -548 -51 -23 -137 -22 -190 1 -28 13
-154 129 -385 354 -434 424 -763 755 -757 761 14 15 2490 25 2507 11z m71
-526 c-1 -222 -4 -574 -8 -782 l-6 -377 -387 387 -388 388 391 398 c216 219
393 396 396 394 2 -3 3 -186 2 -408z m-2201 -83 l304 -300 -395 -393 c-217
-216 -400 -393 -407 -393 -8 0 -10 10 -6 33 3 17 9 369 12 780 l7 748 91 -88
c50 -48 228 -222 394 -387z m514 -502 c171 -159 236 -190 379 -182 112 7 165
36 305 171 l116 111 406 -407 c223 -223 404 -408 401 -410 -2 -3 -353 -7 -779
-11 -426 -3 -997 -9 -1267 -13 -289 -3 -493 -2 -493 3 0 7 820 834 827 834 2
0 49 -43 105 -96z"
                  />
                  <path
                    d="M3605 6106 c-86 -39 -118 -132 -75 -215 26 -52 92 -87 146 -77 99 19
156 146 102 226 -46 67 -114 93 -173 66z"
                  />
                  <path
                    d="M4615 6106 c-96 -43 -123 -163 -54 -241 91 -104 249 -40 249 100 0
106 -105 182 -195 141z"
                  />
                  <path
                    d="M1027 6697 c-3 -8 1 -23 8 -34 11 -14 18 -16 32 -7 28 17 23 48 -8
52 -16 2 -29 -3 -32 -11z"
                  />
                  <path
                    d="M9434 6607 c-7 -20 3 -37 22 -37 18 0 18 24 -1 40 -12 10 -16 9 -21
-3z"
                  />
                  <path
                    d="M9554 5105 c-10 -25 4 -45 30 -45 13 0 26 7 30 15 9 25 -5 45 -30 45
-14 0 -27 -7 -30 -15z"
                  />
                  <path
                    d="M850 4905 c0 -20 5 -25 25 -25 20 0 25 5 25 25 0 20 -5 25 -25 25
-20 0 -25 -5 -25 -25z"
                  />
                  <path
                    d="M4410 4105 c-183 -58 -242 -298 -111 -447 127 -145 365 -103 450 78
l21 44 294 0 293 0 6 -117 c5 -124 19 -179 72 -283 40 -79 172 -206 261 -253
119 -62 159 -67 516 -67 l318 0 19 -37 c99 -193 388 -192 489 1 37 71 38 179
2 249 -48 94 -137 148 -245 149 -109 1 -204 -63 -252 -169 l-24 -53 -288 0
c-159 0 -313 4 -342 10 -141 26 -279 134 -342 267 -32 67 -32 70 -35 241 -3
163 -5 173 -25 187 -18 13 -76 15 -368 15 l-347 0 -31 54 c-65 117 -205 172
-331 131z m147 -142 c125 -59 76 -253 -64 -253 -75 0 -144 93 -124 168 23 83
109 123 188 85z m2301 -703 c78 -48 92 -133 31 -196 -47 -48 -91 -59 -146 -34
-50 22 -83 70 -83 120 0 99 113 162 198 110z"
                  />
                  <path
                    d="M1024 3355 c-7 -17 12 -45 31 -45 7 0 18 7 25 15 10 12 10 18 0 30
-16 19 -49 19 -56 0z"
                  />
                  <path
                    d="M6434 2909 c-67 -58 -142 -105 -248 -155 -169 -78 -131 -76 -1106
-76 -559 0 -874 -3 -892 -10 -30 -11 -49 -53 -38 -83 19 -52 -17 -50 849 -52
443 -1 844 -2 891 -2 163 0 353 68 539 194 114 76 149 107 157 141 10 38 -24
78 -68 82 -30 3 -44 -4 -84 -39z"
                  />
                  <path
                    d="M9164 2876 c-11 -28 4 -48 33 -44 22 2 28 8 28 28 0 20 -6 26 -28 28
-18 2 -29 -2 -33 -12z"
                  />
                  <path
                    d="M8044 2495 c-4 -9 0 -23 8 -31 20 -20 50 -7 46 20 -4 26 -45 35 -54
11z"
                  />
                  <path
                    d="M2116 2363 c-4 -9 0 -23 9 -32 13 -14 17 -14 31 1 9 9 14 24 11 32
-8 21 -43 20 -51 -1z"
                  />
                  <path
                    d="M7074 1826 c-10 -26 1 -51 21 -51 37 0 29 64 -8 65 -4 0 -10 -6 -13
-14z"
                  />
                  <path
                    d="M8720 1459 c-9 -15 -8 -24 1 -35 27 -33 79 1 58 39 -14 23 -46 21
-59 -4z"
                  />
                  <path
                    d="M1105 1370 c-8 -27 12 -52 39 -48 16 2 21 10 21 33 0 25 -4 31 -27
33 -19 2 -28 -2 -33 -18z"
                  />
                  <path
                    d="M5101 1356 c-16 -19 2 -56 28 -56 28 0 47 28 34 48 -13 22 -47 27
-62 8z"
                  />
                  <path
                    d="M3230 1336 c-18 -22 -5 -48 22 -44 17 2 23 10 23 28 0 29 -26 38 -45
16z"
                  />
                  <path
                    d="M7533 924 c-8 -21 13 -42 28 -27 13 13 5 43 -11 43 -6 0 -13 -7 -17
-16z"
                  />
                </g>
              </svg>